<?xml version="1.0" encoding="UTF-8" standalone="no"?>
<svg width="124px" height="31px" viewBox="0 0 124 31" version="1.1" xmlns="http://www.w3.org/2000/svg" xmlns:xlink="http://www.w3.org/1999/xlink">
    <!-- Generator: Sketch 3.7.2 (28276) - http://www.bohemiancoding.com/sketch -->
    <title>mapillary_logo_black</title>
    <desc>Created with Sketch.</desc>
    <defs></defs>
    <g id="Symbols" stroke="none" stroke-width="1" fill="none" fill-rule="evenodd">
        <g id="â„°ð“ð“‹ð’¶-icons" transform="translate(-75.000000, -152.000000)"></g>
        <g id="mapillary_logo_black">
            <path d="M14.4048145,22.8600538 C14.9457128,23.1497241 28.061419,30.4264248 28.4753898,30.6604505 C29.3027163,31.1281541 30.1782211,30.223259 29.7280238,29.3772816 C29.5012572,28.9511587 22.3973062,15.2256852 22.1573833,14.8052961 C21.9174603,14.3849069 21.327308,14.1728729 20.8839051,14.4549775 C20.4495505,14.7313254 19.9489516,15.0425066 19.6691323,15.1915819 C19.1036645,15.4928378 19.0343163,15.9455546 19.287992,16.448894 C19.8455279,17.5551486 21.6002813,20.9114602 21.8011436,21.2631855 C22.2217412,21.9996844 21.2840763,22.8403329 20.6482558,22.4731735 C20.3789751,22.3176753 16.2151224,20.0214804 15.9209064,19.8416031 C15.6266904,19.6617258 15.105463,19.6635491 14.7478512,20.2701674 C14.4878069,20.7112814 14.1687296,21.2586089 14.021539,21.5330151 C13.7321257,22.072566 13.8639161,22.5703835 14.4048145,22.8600538 L14.4048145,22.8600538 Z" id="Path-24" fill="#36AF6D"></path>
            <path d="M0.558264236,15.1845845 C-0.139955714,14.7876168 -0.0122511587,13.7561718 0.86881516,13.4931024 C1.61530137,13.2702161 7.67723351,11.1397077 9.51169898,10.4940511 C9.84242521,10.377649 10.1006199,10.1099619 10.2117245,9.76820464 C10.8365399,7.84627551 12.9234851,1.42684187 13.1574424,0.707189464 C13.4330019,-0.140431476 14.4305705,-0.143540941 14.8371503,0.677033754 C14.981563,0.968493025 20.4705227,11.399215 20.6614961,11.8416826 C20.8524695,12.2841502 20.7294316,12.7742661 20.2966045,13.0569644 C19.8637775,13.3396627 19.1579297,13.762502 18.9120084,13.9226924 C18.4667877,14.2127044 18.0400535,14.0107915 17.8368009,13.5615688 C17.6335482,13.1123462 16.0676727,10.2138539 15.4291532,8.98332303 C15.1099927,8.36824868 14.1484882,8.13221067 13.8253048,9.12632135 C13.5915518,9.84534444 13.0467253,11.5212285 12.7630985,12.3936632 C12.6545871,12.7274438 12.3795458,13.0147345 12.0582391,13.1263214 C11.2608649,13.4032424 9.74573408,13.9294338 8.86113118,14.2366485 C8.22986879,14.4558803 7.92302987,15.469644 8.77532438,15.8965445 C8.95335681,15.9857181 12.7907091,18.1445988 13.1866332,18.342058 C13.5825573,18.5395172 13.8027154,19.1095208 13.5708725,19.5133371 C13.2546404,20.0641395 12.8497933,20.7631874 12.7029326,20.9901372 C12.4484022,21.3834734 11.9484091,21.5144676 11.5284902,21.282311 C11.1085712,21.0501544 0.807750977,15.3264283 0.558264236,15.1845845 Z" id="Path-2" fill="#36AF6D"></path>
            <path d="M51.9322475,7.92400589 L51.9322475,24.7365831 L48.7644221,24.7365831 L48.7644221,15.9901556 L45.2006185,24.7365831 L43.4769487,24.7365831 L39.9131451,15.9901556 L39.9131451,24.7365831 L36.7453197,24.7365831 L36.7453197,7.92400589 L40.0063165,7.92400589 L44.3387836,18.5169013 L48.6712507,7.92400589 L51.9322475,7.92400589 L51.9322475,7.92400589 Z M65.7569067,11.5926463 L68.528754,11.5926463 L68.528754,12.6859497 C68.7150976,12.2972177 69.0877792,11.9651807 69.64681,11.6898288 C70.2058408,11.4144769 70.8192127,11.2768031 71.4869439,11.2768031 C72.1236179,11.2768031 72.7214613,11.4266246 73.2804921,11.7262723 C73.839523,12.0259199 74.3247855,12.4672861 74.7362943,13.0503842 C75.1478031,13.6334823 75.4738995,14.3542455 75.7145933,15.2126954 C75.9552871,16.0711454 76.0756322,17.0510594 76.0756322,18.1524669 C76.0756322,19.2862687 75.9591692,20.2823796 75.7262397,21.1408296 C75.4933102,21.9992795 75.174978,22.7200427 74.7712335,23.3031408 C74.3674891,23.8862389 73.8899907,24.3235559 73.3387242,24.6151049 C72.7874577,24.906654 72.1857322,25.0524263 71.5335296,25.0524263 C70.8347411,25.0524263 70.2718365,24.9390478 69.8447991,24.7122874 C69.4177617,24.4855271 69.1110758,24.2020809 68.9247322,23.8619403 L68.9247322,29.1016489 L65.7569067,29.8102962 L65.7569067,11.5926463 L65.7569067,11.5926463 Z M70.7415732,21.9182898 C72.278908,21.9182898 73.0475638,20.6711265 73.0475638,18.1767625 C73.0475638,16.9619748 72.8573409,16.0387501 72.4768894,15.4070605 C72.0964378,14.7753709 71.5490617,14.4595308 70.8347446,14.4595308 C70.306771,14.4595308 69.8680937,14.6498447 69.5186994,15.0304782 C69.1693052,15.4111117 68.9014403,15.8605763 68.7150967,16.3788858 L68.7150967,20.120413 C68.9324975,20.7197083 69.2236551,21.169173 69.5885779,21.4688206 C69.9535008,21.7684682 70.3378288,21.9182898 70.7415732,21.9182898 L70.7415732,21.9182898 L70.7415732,21.9182898 Z M80.6410277,11.5926463 L80.6410277,24.7365831 L77.4499094,24.7365831 L77.4499094,11.5926463 L80.6410277,11.5926463 L80.6410277,11.5926463 Z M77.4499094,8.67717048 C77.4499094,8.20745258 77.5974293,7.80252943 77.8924733,7.46238889 C78.1875173,7.12224834 78.5679632,6.95218062 79.0338222,6.95218062 C79.4686239,6.95218062 79.8451876,7.12224834 80.1635246,7.46238889 C80.4818616,7.80252943 80.6410277,8.20745258 80.6410277,8.67717048 C80.6410277,9.13069121 80.4818616,9.51536819 80.1635246,9.83121299 C79.8451876,10.1470578 79.4686239,10.3049778 79.0338222,10.3049778 C78.5679632,10.3049778 78.1875173,10.1470578 77.8924733,9.83121299 C77.5974293,9.51536819 77.4499094,9.13069121 77.4499094,8.67717048 L77.4499094,8.67717048 L77.4499094,8.67717048 Z M82.2948189,8.14266658 L85.4626444,7.02506752 L85.4626444,24.7365831 L82.2948189,24.7365831 L82.2948189,8.14266658 L82.2948189,8.14266658 Z M87.1164356,8.14266658 L90.284261,7.02506752 L90.284261,24.7365831 L87.1164356,24.7365831 L87.1164356,8.14266658 L87.1164356,8.14266658 Z M107.473755,11.5926463 L107.473755,12.4915847 C107.691156,12.1190498 108.048309,11.8234559 108.545225,11.6047941 C109.042142,11.3861323 109.562343,11.2768031 110.105845,11.2768031 C110.463004,11.2768031 110.808511,11.3334923 111.142376,11.4468725 C111.476242,11.5602527 111.736343,11.7465173 111.922686,12.005672 L110.781337,14.9454435 C110.393122,14.5891058 109.966091,14.4109396 109.500232,14.4109396 C109.112016,14.4109396 108.758745,14.5607611 108.440408,14.8604088 C108.122071,15.1600564 107.86197,15.625718 107.660098,16.2574076 L107.660098,24.7365831 L104.492272,24.7365831 L104.492272,11.5926463 L107.473755,11.5926463 L107.473755,11.5926463 Z M99.658896,23.7781238 C98.8148003,24.5427672 97.8313738,25.0733716 96.7817699,25.0733716 C93.1465504,25.0733716 91.6227897,21.9953219 91.6227897,18.1983552 C91.6227897,14.4013884 93.1465504,11.3233387 96.7817699,11.3233387 C97.9116638,11.3233387 98.8719458,11.8179799 99.658896,12.5606768 L99.658896,11.5015381 L102.887072,11.5015381 L102.887072,24.8951722 L99.658896,24.8951722 L99.658896,23.7781238 L99.658896,23.7781238 Z M99.658896,20.4586659 C99.254685,21.3716138 98.5400909,21.9417675 97.5072848,21.9604005 C95.5542163,21.9956361 94.8049284,20.3189429 94.7697277,18.2345973 C94.734527,16.1502516 95.4267432,14.4475525 97.3798117,14.4123171 C98.3866813,14.3941522 99.2030503,15.0592288 99.658896,16.1291917 L99.658896,20.4586659 L99.658896,20.4586659 Z M61.2789655,23.7781238 C60.4348699,24.5427672 59.4514434,25.0733716 58.4018395,25.0733716 C54.76662,25.0733716 53.2428592,21.9953219 53.2428592,18.1983552 C53.2428592,14.4013884 54.76662,11.3233387 58.4018395,11.3233387 C59.5317334,11.3233387 60.4920154,11.8179799 61.2789655,12.5606768 L61.2789655,11.5015381 L64.5071419,11.5015381 L64.5071419,24.8951722 L61.2789655,24.8951722 L61.2789655,23.7781238 L61.2789655,23.7781238 L61.2789655,23.7781238 Z M61.2789655,20.4586659 C60.8747545,21.3716138 60.1601605,21.9417675 59.1273544,21.9604005 C57.1742859,21.9956361 56.424998,20.3189429 56.3897972,18.2345973 C56.3545965,16.1502516 57.0468128,14.4475525 58.9998813,14.4123171 C60.0067509,14.3941522 60.8231199,15.0592288 61.2789655,16.1291917 L61.2789655,20.4586659 L61.2789655,20.4586659 L61.2789655,20.4586659 Z M117.768879,29.4013444 L114.461296,29.4013444 L116.441187,23.5946884 L112.295063,11.5926463 L115.788988,11.5926463 L118.141564,19.2214747 L120.49414,11.5926463 L123.918187,11.5926463 L117.768879,29.4013444 L117.768879,29.4013444 Z" id="Mapillary" fill="#242528"></path>
        </g>
    </g>
</svg>